<svg width="223" height="26" viewBox="0 0 223 26" fill="none" xmlns="http://www.w3.org/2000/svg">
<path d="M20.644 0.208V25.38H17.144V0.208H20.644ZM0.568 10.932C0.568 9.14 0.848 7.572 1.408 6.228C1.98667 4.86533 2.77067 3.82 3.76 3.092C4.768 2.364 5.90667 2 7.176 2C8.42667 2 9.54667 2.364 10.536 3.092C11.544 3.82 12.328 4.86533 12.888 6.228C13.448 7.572 13.728 9.14 13.728 10.932C13.728 12.7427 13.448 14.3293 12.888 15.692C12.328 17.036 11.544 18.072 10.536 18.8C9.54667 19.528 8.42667 19.892 7.176 19.892C5.90667 19.892 4.768 19.528 3.76 18.8C2.77067 18.072 1.98667 17.036 1.408 15.692C0.848 14.3293 0.568 12.7427 0.568 10.932ZM3.928 10.932C3.928 12.78 4.21733 14.2173 4.796 15.244C5.39333 16.252 6.18667 16.756 7.176 16.756C8.14667 16.756 8.92133 16.252 9.5 15.244C10.0973 14.2173 10.396 12.78 10.396 10.932C10.396 9.10267 10.0973 7.684 9.5 6.676C8.92133 5.64933 8.14667 5.136 7.176 5.136C6.18667 5.136 5.39333 5.64 4.796 6.648C4.21733 7.656 3.928 9.084 3.928 10.932ZM46.7967 12.92V15.664H24.0887V12.92H46.7967ZM26.8607 0.74H43.9967V7.348H30.3047V8.888H44.5007V11.52H26.9167V4.912H40.5807V3.372H26.8607V0.74ZM26.9727 17.26H44.1087V25.072H26.9727V17.26ZM40.7207 22.328V19.976H30.3607V22.328H40.7207Z" fill="url(#paint0_linear_2_512)"/>
<path d="M59.5933 0.627999C62.468 0.627999 64.6986 1.00133 66.2853 1.748C67.872 2.476 68.6653 3.53067 68.6653 4.912C68.6653 6.29333 67.872 7.35733 66.2853 8.104C64.6986 8.832 62.468 9.196 59.5933 9.196C56.7373 9.196 54.5066 8.832 52.9013 8.104C51.3146 7.35733 50.5213 6.29333 50.5213 4.912C50.5213 3.53067 51.3146 2.476 52.9013 1.748C54.488 1.00133 56.7186 0.627999 59.5933 0.627999ZM48.2533 10.4H70.9333V13.172H48.2533V10.4ZM50.8573 14.628H68.1613V21.012H54.3013V22.552H68.8333V25.156H50.9133V18.576H64.7453V17.204H50.8573V14.628ZM54.1333 4.912C54.1333 5.50933 54.5813 5.948 55.4773 6.228C56.3733 6.508 57.7453 6.648 59.5933 6.648C61.4413 6.648 62.8133 6.508 63.7093 6.228C64.6053 5.948 65.0533 5.50933 65.0533 4.912C65.0533 3.736 63.2333 3.148 59.5933 3.148C55.9533 3.148 54.1333 3.736 54.1333 4.912ZM99.4231 0.263999V13.732H95.9231V0.263999H99.4231ZM78.9831 7.208C78.9831 6.06933 79.2724 5.052 79.8511 4.156C80.4484 3.26 81.2604 2.56 82.2871 2.056C83.3324 1.552 84.4991 1.3 85.7871 1.3C87.0751 1.3 88.2324 1.552 89.2591 2.056C90.3044 2.56 91.1164 3.26 91.6951 4.156C92.2924 5.052 92.5911 6.06933 92.5911 7.208C92.5911 8.34667 92.2924 9.364 91.6951 10.26C91.1164 11.156 90.3044 11.856 89.2591 12.36C88.2324 12.864 87.0751 13.116 85.7871 13.116C84.4991 13.116 83.3324 12.864 82.2871 12.36C81.2604 11.856 80.4484 11.156 79.8511 10.26C79.2724 9.364 78.9831 8.34667 78.9831 7.208ZM82.3711 7.208C82.3711 8.14133 82.6884 8.87867 83.3231 9.42C83.9578 9.96133 84.7791 10.232 85.7871 10.232C86.7951 10.232 87.6164 9.96133 88.2511 9.42C88.8858 8.87867 89.2031 8.14133 89.2031 7.208C89.2031 6.27467 88.8858 5.53733 88.2511 4.996C87.6164 4.436 86.7951 4.156 85.7871 4.156C84.7791 4.156 83.9578 4.436 83.3231 4.996C82.6884 5.53733 82.3711 6.27467 82.3711 7.208ZM82.7911 14.852H86.2351V17.232H95.9791V14.852H99.4231V25.072H82.7911V14.852ZM95.9791 22.3V19.92H86.2351V22.3H95.9791ZM114.74 1.692V9.504H107.208V12.248C109.168 12.2293 110.754 12.1827 111.968 12.108C113.2 12.0333 114.432 11.884 115.664 11.66L116.028 14.404C114.609 14.6653 113.172 14.8333 111.716 14.908C110.26 14.9827 108.244 15.02 105.668 15.02H103.764V6.928H111.296V4.464H103.708V1.692H114.74ZM106.62 16.896H123.784V25.38H120.284V19.64H106.62V16.896ZM116.168 9.084H120.284V6.536H116.168V3.736H120.284V0.263999H123.784V15.72H120.284V11.828H116.168V9.084ZM131.316 4.072V0.907999H134.732V4.072H139.016V6.816H126.976V4.072H131.316ZM127.536 13.956C127.536 12.8173 127.77 11.8 128.236 10.904C128.722 9.98933 129.375 9.28 130.196 8.776C131.036 8.272 131.979 8.02 133.024 8.02C134.07 8.02 135.012 8.272 135.852 8.776C136.692 9.28 137.346 9.98933 137.812 10.904C138.279 11.8 138.512 12.8173 138.512 13.956C138.512 15.1133 138.279 16.14 137.812 17.036C137.346 17.932 136.692 18.632 135.852 19.136C135.012 19.64 134.07 19.892 133.024 19.892C131.979 19.892 131.036 19.64 130.196 19.136C129.375 18.632 128.722 17.932 128.236 17.036C127.77 16.14 127.536 15.1133 127.536 13.956ZM130.616 13.956C130.616 14.908 130.84 15.6547 131.288 16.196C131.736 16.7373 132.315 17.008 133.024 17.008C133.752 17.008 134.34 16.7373 134.788 16.196C135.236 15.6547 135.46 14.908 135.46 13.956C135.46 13.004 135.236 12.2573 134.788 11.716C134.34 11.156 133.752 10.876 133.024 10.876C132.315 10.876 131.736 11.156 131.288 11.716C130.84 12.2573 130.616 13.004 130.616 13.956ZM139.94 0.74H143.188V10.484H145.204V0.235999H148.508V25.324H145.204V13.284H143.188V24.26H139.94V0.74ZM173.905 14.152V16.952H164.217V25.38H160.745V16.952H151.225V14.152H173.905ZM152.345 9.924C153.95 9.71867 155.35 9.336 156.545 8.776C157.74 8.216 158.673 7.544 159.345 6.76C160.017 5.976 160.418 5.164 160.549 4.324H153.241V1.58H171.833V4.324H164.581C164.712 5.164 165.113 5.976 165.785 6.76C166.457 7.544 167.39 8.216 168.585 8.776C169.78 9.336 171.18 9.71867 172.785 9.924L171.525 12.668C169.397 12.3693 167.558 11.772 166.009 10.876C164.478 9.98 163.33 8.86933 162.565 7.544C161.8 8.86933 160.642 9.98 159.093 10.876C157.562 11.772 155.733 12.3693 153.605 12.668L152.345 9.924ZM188.494 8.748V0.655999H191.714V24.176H188.494V11.576H185.246V8.748H188.494ZM174.914 17.708C176.65 16.644 177.928 15.132 178.75 13.172C179.571 11.1933 179.982 9.03733 179.982 6.704V2.448H183.314V6.564C183.314 8.804 183.668 10.848 184.378 12.696C185.106 14.544 186.272 15.9907 187.878 17.036L185.974 19.752C183.995 18.52 182.558 16.4947 181.662 13.676C180.71 16.756 179.16 18.9587 177.014 20.284L174.914 17.708ZM193.59 0.235999H196.894V25.324H193.59V0.235999ZM204.65 19.556V13.368C203.68 12.7707 202.924 12.0333 202.382 11.156C201.841 10.26 201.57 9.27067 201.57 8.188C201.57 6.86267 201.972 5.696 202.774 4.688C203.577 3.66133 204.688 2.87733 206.106 2.336C207.525 1.776 209.13 1.496 210.922 1.496C212.714 1.496 214.32 1.776 215.738 2.336C217.157 2.87733 218.268 3.66133 219.07 4.688C219.873 5.696 220.274 6.86267 220.274 8.188C220.274 9.252 220.004 10.232 219.462 11.128C218.94 12.0053 218.202 12.7427 217.25 13.34V19.556H222.318V22.384H199.61V19.556H204.65ZM205.014 8.188C205.014 9.43867 205.546 10.4187 206.61 11.128C207.693 11.8373 209.13 12.192 210.922 12.192C212.714 12.192 214.152 11.8373 215.234 11.128C216.317 10.4187 216.858 9.43867 216.858 8.188C216.858 6.93733 216.317 5.95733 215.234 5.248C214.152 4.53867 212.714 4.184 210.922 4.184C209.13 4.184 207.693 4.53867 206.61 5.248C205.546 5.95733 205.014 6.93733 205.014 8.188ZM213.778 19.556V14.628C212.92 14.8147 211.968 14.908 210.922 14.908C209.933 14.908 209 14.824 208.122 14.656V19.556H213.778Z" fill="#181D21"/>
<defs>
<linearGradient id="paint0_linear_2_512" x1="-1" y1="-0.499992" x2="47.2647" y2="34.3998" gradientUnits="userSpaceOnUse">
<stop stop-color="#85F4FF"/>
<stop offset="1" stop-color="#00CCFF"/>
</linearGradient>
</defs>
</svg>
